<svg width="580" height="214" xmlns="http://www.w3.org/2000/svg">
 <!-- Created with Method Draw - http://github.com/duopixel/Method-Draw/ -->

 <g>
  <title>background</title>
  <rect fill="transparent" id="canvas_background" height="216" width="382" y="-1" x="-1"/>
  <g display="none" overflow="visible" y="0" x="0" height="100%" width="100%" id="canvasGrid">
   <rect fill="url(#gridpattern)" stroke-width="0" y="0" x="0" height="100%" width="100%"/>
  </g>
 </g>
 <g>
  <title>Layer 1</title>
  <g stroke="null" id="svg_28">
   <g stroke="null" transform="matrix(2.3163611349397644,0,0,2.059915720063477,-15670.060554967025,-9505.536474661585) " id="svg_4">
    <path stroke="null" id="svg_6" fill-rule="nonzero" fill="rgb(49.411765%,80.784314%,21.960784%)" d="m6765.713092,4702.271211l0,2.59766l5.39453,0l0,11.99609l2.95703,0l0,-11.99609l5.36328,0l0,-2.59766l-13.71484,0zm0,0"/>
    <path stroke="null" id="svg_7" fill-rule="nonzero" fill="rgb(49.411765%,80.784314%,21.960784%)" d="m6785.537312,4714.263401l0,-4.0625l8.38671,0l0,-2.4375l-8.38671,0l0,-2.92578l9.45703,0l0,-2.59766l-12.41407,0l0,14.58984l12.60938,0l0,-2.59765l-9.65234,0l0,0.03125zm0,0"/>
    <path stroke="null" id="svg_8" fill-rule="nonzero" fill="rgb(49.411765%,80.784314%,21.960784%)" d="m6797.466992,4702.271211l0,2.59766l5.39453,0l0,11.99609l2.95704,0l0,-11.99609l5.39453,0l0,-2.59766l-13.7461,0zm0,0"/>
    <path stroke="null" id="svg_9" fill-rule="nonzero" fill="rgb(49.411765%,80.784314%,21.960784%)" d="m6836.431842,4714.263401l0,-4.0625l8.38672,0l0,-2.4375l-8.38672,0l0,-2.92578l9.45703,0l0,-2.59766l-12.41406,0l0,14.58984l12.60937,0l0,-2.59765l-9.65234,0l0,0.03125zm0,0"/>
    <path stroke="null" id="svg_10" fill-rule="nonzero" fill="rgb(49.411765%,80.784314%,21.960784%)" d="m6861.521682,4711.368871c0.42188,-0.32422 0.75,-0.67969 1.00781,-1.10157c0.26172,-0.42578 0.48828,-0.84765 0.61719,-1.36718c0.13281,-0.48829 0.19531,-1.00782 0.19531,-1.52735c0,-0.8125 -0.1289,-1.52734 -0.39062,-2.14453c-0.25781,-0.64844 -0.64844,-1.17187 -1.19922,-1.625c-0.55469,-0.45312 -1.23828,-0.78125 -2.05078,-1.00781c-0.8125,-0.22656 -1.78516,-0.35547 -2.92188,-0.35547l-7.41015,0l0,14.58984l2.95703,0l0,-4.125l4.58203,0l2.73047,4.16016l3.60547,0l-3.15235,-4.68359c0.55469,-0.22657 1.03907,-0.48438 1.42969,-0.8125zm-2.10937,-1.98047c-0.29297,0.22656 -0.6211,0.42187 -1.04297,0.55078c-0.42188,0.13281 -0.91016,0.19531 -1.46094,0.19531l-4.55078,0l0,-5.29687l4.55078,0c1.13672,0 1.98047,0.22656 2.53516,0.68359c0.55078,0.45312 0.84375,1.07031 0.84375,1.88281c0,0.42578 -0.0625,0.78125 -0.22657,1.14063c-0.16406,0.32422 -0.39062,0.61718 -0.64843,0.84375zm0,0"/>
    <path stroke="null" id="svg_11" fill-rule="nonzero" fill="rgb(49.411765%,80.784314%,21.960784%)" d="m6866.072462,4708.380581l0,2.08204l8.54688,0l0,-2.08204l-8.54688,0zm0,0"/>
    <path stroke="null" id="svg_12" fill-rule="nonzero" fill="rgb(49.411765%,80.784314%,21.960784%)" d="m6890.869342,4713.157931c-0.32422,0.19531 -0.64844,0.35937 -1.00782,0.48828c-0.35546,0.16016 -0.74609,0.29297 -1.13671,0.39062c-0.39063,0.09766 -0.8125,0.19532 -1.23438,0.25782c-0.42187,0.0664 -0.84375,0.09765 -1.26562,0.09765c-0.94532,0 -1.78907,-0.1289 -2.53516,-0.35547c-0.75,-0.26171 -1.39844,-0.58593 -1.88672,-1.04296c-0.51953,-0.42188 -0.91016,-0.94141 -1.20312,-1.5586c-0.25782,-0.61719 -0.42188,-1.26562 -0.42188,-1.98047c0,-0.68359 0.12891,-1.33593 0.39063,-1.91797c0.25781,-0.58593 0.64843,-1.07421 1.16796,-1.49609c0.51954,-0.42187 1.14063,-0.74609 1.88672,-0.97656c0.7461,-0.22656 1.59375,-0.35547 2.53516,-0.35547c0.39062,0 0.78125,0.03125 1.20312,0.06641c0.39063,0.0625 0.77735,0.1289 1.16797,0.22656c0.39063,0.09765 0.75,0.19531 1.07422,0.32422c0.32422,0.1289 0.61719,0.29297 0.875,0.45312l1.36719,-2.24219c-0.84375,-0.48437 -1.78906,-0.84375 -2.76172,-1.10546c-1.00781,-0.25782 -2.08203,-0.35547 -3.28516,-0.35547c-1.36328,0 -2.5664,0.19531 -3.63671,0.58593c-1.07422,0.39063 -1.98438,0.91016 -2.73047,1.5586c-0.75,0.64844 -1.30078,1.42969 -1.69141,2.33984c-0.39062,0.91016 -0.58594,1.85156 -0.58594,2.89453c0,1.07032 0.19532,2.04688 0.58594,2.98828c0.39063,0.91016 0.94141,1.72266 1.72266,2.40625c0.74609,0.67969 1.6914,1.20313 2.82812,1.58985c1.13672,0.39062 2.4375,0.58594 3.9336,0.58594c1.16796,0 2.27343,-0.12891 3.3125,-0.42188c1.03906,-0.29297 1.94921,-0.68359 2.76171,-1.20312l-1.42968,-2.24219zm0,0"/>
    <path stroke="null" id="svg_13" fill-rule="nonzero" fill="rgb(49.411765%,80.784314%,21.960784%)" d="m6906.404492,4702.271211l0,8.02734c0,0.64844 -0.09765,1.23438 -0.25781,1.75391c-0.19531,0.51953 -0.45703,0.94141 -0.8125,1.30078c-0.35937,0.35938 -0.8125,0.61719 -1.33203,0.8125c-0.52344,0.19531 -1.14063,0.26172 -1.85547,0.26172c-0.71484,0 -1.33203,-0.09766 -1.85156,-0.26172c-0.51953,-0.19531 -0.97656,-0.45312 -1.33203,-0.8125c-0.35938,-0.35937 -0.61719,-0.78125 -0.8125,-1.30078c-0.19532,-0.51953 -0.26172,-1.10547 -0.26172,-1.75391l0,-8.02734l-2.95703,0l0,8.38281c0,0.94531 0.16406,1.82031 0.48828,2.60156c0.32422,0.78125 0.78125,1.46094 1.39844,2.01563c0.61718,0.55078 1.36328,1.00781 2.27343,1.30078c0.87891,0.29297 1.91797,0.45313 3.05469,0.45313c1.14063,0 2.14453,-0.16016 3.05469,-0.45313c0.8789,-0.29297 1.66015,-0.75 2.27734,-1.30078c0.61719,-0.55469 1.07031,-1.23438 1.39844,-2.01563c0.32422,-0.78125 0.48437,-1.65625 0.48437,-2.60156l0,-8.38281l-2.95703,0zm0,0"/>
    <path stroke="null" id="svg_14" fill-rule="nonzero" fill="rgb(49.411765%,80.784314%,21.960784%)" d="m6925.127152,4711.368871c0.42187,-0.32422 0.74609,-0.67969 1.00391,-1.10157c0.26171,-0.42578 0.48828,-0.84765 0.62109,-1.36718c0.12891,-0.48829 0.19141,-1.00782 0.19141,-1.52735c0,-0.8125 -0.12891,-1.52734 -0.38672,-2.14453c-0.26172,-0.64844 -0.65235,-1.17187 -1.20313,-1.625c-0.55469,-0.45312 -1.23437,-0.78125 -2.04687,-1.00781c-0.8125,-0.22656 -1.78907,-0.35547 -2.92578,-0.35547l-7.41016,0l0,14.58984l2.95703,0l0,-4.125l4.58203,0l2.73047,4.16016l3.60938,0l-3.15625,-4.68359c0.52343,-0.22657 1.00781,-0.48438 1.43359,-0.8125zm-2.14844,-1.98047c-0.28906,0.22656 -0.61719,0.42187 -1.03906,0.55078c-0.42188,0.13281 -0.91016,0.19531 -1.46094,0.19531l-4.55078,0l0,-5.29687l4.55078,0c1.13672,0 1.98047,0.22656 2.53516,0.68359c0.55078,0.45312 0.84375,1.07031 0.84375,1.88281c0,0.42578 -0.06641,0.78125 -0.22656,1.14063c-0.16407,0.32422 -0.35938,0.61718 -0.65235,0.84375zm0,0"/>
    <path stroke="null" id="svg_15" fill-rule="nonzero" fill="rgb(49.411765%,80.784314%,21.960784%)" d="m6942.611522,4711.368871c0.42188,-0.32422 0.7461,-0.67969 1.00782,-1.10157c0.25781,-0.42578 0.45312,-0.84765 0.58203,-1.36718c0.13281,-0.48829 0.19531,-1.00782 0.19531,-1.52735c0,-0.8125 -0.12891,-1.52734 -0.39062,-2.14453c-0.25782,-0.64844 -0.67969,-1.17187 -1.19922,-1.625c-0.55469,-0.45312 -1.23828,-0.78125 -2.05078,-1.00781c-0.8125,-0.22656 -1.78516,-0.35547 -2.92188,-0.35547l-7.41016,0l0,14.58984l2.95704,0l0,-4.125l4.58203,0l2.73047,4.16016l3.60546,0l-3.15234,-4.68359c0.55469,-0.22657 1.04297,-0.48438 1.46484,-0.8125zm-2.14453,-1.98047c-0.29297,0.22656 -0.61718,0.42187 -1.04297,0.55078c-0.42187,0.13281 -0.91015,0.19531 -1.46093,0.19531l-4.55078,0l0,-5.29687l4.55078,0c1.13672,0 1.98047,0.22656 2.53515,0.68359c0.55078,0.45312 0.84375,1.07031 0.84375,1.88281c0,0.42578 -0.0625,0.78125 -0.19531,1.14063c-0.19531,0.32422 -0.42187,0.61718 -0.67969,0.84375zm0,0"/>
    <path stroke="null" id="svg_16" fill-rule="nonzero" fill="rgb(49.411765%,80.784314%,21.960784%)" d="m6950.865432,4714.263401l0,-4.0625l8.38672,0l0,-2.4375l-8.38672,0l0,-2.92578l9.45703,0l0,-2.59766l-12.41406,0l0,14.58984l12.60937,0l0,-2.59765l-9.65234,0l0,0.03125zm0,0"/>
    <path stroke="null" id="svg_17" fill-rule="nonzero" fill="rgb(49.411765%,80.784314%,21.960784%)" d="m6975.826372,4702.271211l0,4.74609l-9.10156,-4.74609l-2.95704,0l0,14.59375l2.95704,0l0,-11.41016l9.10156,4.7461l0,6.69531l2.95703,0l0,-14.59375l-2.95703,0l0,-0.03125zm0,0"/>
    <path stroke="null" id="svg_18" fill-rule="nonzero" fill="rgb(49.411765%,80.784314%,21.960784%)" d="m6995.814652,4713.157931c-0.32813,0.19531 -0.65234,0.35937 -1.04297,0.48828c-0.35547,0.16016 -0.74609,0.29297 -1.13672,0.39062c-0.39062,0.09766 -0.8125,0.19532 -1.23437,0.25782c-0.42188,0.0664 -0.84375,0.09765 -1.26953,0.09765c-0.94141,0 -1.78516,-0.1289 -2.53125,-0.35547c-0.75,-0.26171 -1.39844,-0.58593 -1.88672,-1.04296c-0.51953,-0.42188 -0.91016,-0.94141 -1.20313,-1.5586c-0.25781,-0.61719 -0.42187,-1.26562 -0.42187,-1.98047c0,-0.68359 0.1289,-1.33593 0.39062,-1.91797c0.25781,-0.58593 0.64844,-1.07421 1.16797,-1.49609c0.51953,-0.42187 1.14063,-0.74609 1.88672,-0.97656c0.74609,-0.22656 1.59375,-0.35547 2.53516,-0.35547c0.39062,0 0.78125,0.03125 1.20312,0.06641c0.39063,0.0625 0.77734,0.1289 1.16797,0.22656c0.39062,0.09765 0.75,0.19531 1.07422,0.32422c0.32422,0.1289 0.61719,0.29297 0.875,0.45312l1.36719,-2.24219c-0.84375,-0.48437 -1.78907,-0.84375 -2.76172,-1.10546c-1.00782,-0.25782 -2.08203,-0.35547 -3.28516,-0.35547c-1.36328,0 -2.56641,0.19531 -3.64062,0.58593c-1.07032,0.39063 -1.98047,0.91016 -2.72657,1.5586c-0.75,0.64844 -1.30078,1.42969 -1.6914,2.33984c-0.39063,0.91016 -0.58594,1.85156 -0.58594,2.89453c0,1.07032 0.19531,2.04688 0.58594,2.98828c0.39062,0.91016 0.9414,1.72266 1.72265,2.40625c0.7461,0.67969 1.69141,1.20313 2.82813,1.58985c1.13672,0.39062 2.4375,0.58594 3.92969,0.58594c1.17187,0 2.27734,-0.12891 3.3164,-0.42188c1.03906,-0.29297 1.94922,-0.68359 2.76172,-1.20312l-1.39453,-2.24219zm0,0"/>
    <path stroke="null" id="svg_19" fill-rule="nonzero" fill="rgb(49.411765%,80.784314%,21.960784%)" d="m7010.795122,4702.271211l-4.41797,8.28516l-4.48828,-8.28516l-3.34766,0l6.3711,10.98437l0,3.60938l2.95703,0l0,-3.64063l6.27343,-10.95312l-3.34765,0zm0,0"/>
    <path stroke="null" id="svg_20" fill-rule="nonzero" fill="rgb(49.411765%,80.784314%,21.960784%)" d="m6826.357622,4702.271211l0,6.01172l-9.03516,0l0,-6.01172l-2.98828,0l0,14.59375l2.98828,0l0,-6.04688l9.03516,0l0,6.04688l2.99219,0l0,-14.59375l-2.99219,0zm0,0"/>
    <path stroke="null" id="svg_21" fill-rule="nonzero" fill="rgb(49.411765%,80.784314%,21.960784%)" d="m6922.330272,4648.419651c0,18.21875 -14.76953,32.98437 -32.98828,32.98437c-18.21875,0 -32.98828,-14.76562 -32.98828,-32.98437c0,-18.21875 14.76953,-32.98828 32.98828,-32.98828c18.21875,0 32.98828,14.76953 32.98828,32.98828zm0,0"/>
    <path stroke="null" id="svg_22" fill-rule="nonzero" fill="rgb(100%,100%,100%)" d="m6878.099812,4648.775121l-9.10157,0.09765l18.13282,23.23828l-9.03125,-23.33593zm0,0"/>
    <path stroke="null" id="svg_23" fill-rule="nonzero" fill="rgb(100%,100%,100%)" d="m6900.588092,4648.775121l9.10156,0.09765l-18.13672,23.23828l9.03516,-23.33593zm0,0"/>
    <path stroke="null" id="svg_24" fill-rule="nonzero" fill="rgb(100%,100%,100%)" d="m6879.689652,4648.970431l19.27344,0l-9.45703,23.82422l-9.81641,-23.82422zm0,0"/>
    <path stroke="null" id="svg_25" fill-rule="nonzero" fill="rgb(100%,100%,100%)" d="m6900.588092,4647.052461l9.10156,-0.09766l-18.13672,-23.26953l9.03516,23.36719zm0,0"/>
    <path stroke="null" id="svg_26" fill-rule="nonzero" fill="rgb(100%,100%,100%)" d="m6878.099812,4647.052461l-9.10157,-0.09766l18.13282,-23.26953l-9.03125,23.36719zm0,0"/>
    <path stroke="null" id="svg_27" fill-rule="nonzero" fill="rgb(100%,100%,100%)" d="m6898.994342,4646.857151l-19.26953,0l9.42187,-23.85547l9.84766,23.85547zm0,0"/>
   </g>
  </g>
 </g>
</svg>