<svg width="40" height="40" viewBox="0 0 60 60" fill="none" xmlns="http://www.w3.org/2000/svg">
<path fill-rule="evenodd" clip-rule="evenodd" d="M10 16.875H50C51.035 16.875 51.875 16.035 51.875 15C51.875 13.965 51.035 13.125 50 13.125H10C8.965 13.125 8.125 13.965 8.125 15C8.125 16.035 8.965 16.875 10 16.875Z" fill="#e23f65"/>
<path fill-rule="evenodd" clip-rule="evenodd" d="M10 31.875H50C51.035 31.875 51.875 31.035 51.875 30C51.875 28.965 51.035 28.125 50 28.125H10C8.965 28.125 8.125 28.965 8.125 30C8.125 31.035 8.965 31.875 10 31.875Z" fill="#e23f65"/>
<path fill-rule="evenodd" clip-rule="evenodd" d="M10 46.875H50C51.035 46.875 51.875 46.035 51.875 45C51.875 43.965 51.035 43.125 50 43.125H10C8.965 43.125 8.125 43.965 8.125 45C8.125 46.035 8.965 46.875 10 46.875Z" fill="#e23f65"/>
</svg>
